<?xml version="1.0" encoding="UTF-8"?>
<!DOCTYPE svg PUBLIC "-//W3C//DTD SVG 1.1//EN" "http://www.w3.org/Graphics/SVG/1.1/DTD/svg11.dtd">
<!-- Creator: CorelDRAW X5 -->
<svg xmlns="http://www.w3.org/2000/svg" xml:space="preserve" width="11in" height="8.5in" style="shape-rendering:geometricPrecision; text-rendering:geometricPrecision; image-rendering:optimizeQuality; fill-rule:evenodd; clip-rule:evenodd"
viewBox="0 0 11 8.5"
 xmlns:xlink="http://www.w3.org/1999/xlink">
 <defs>
  <style type="text/css">
   <![CDATA[
    .str2 {stroke:#E6E7E8;stroke-width:0.003}
    .str0 {stroke:#373435;stroke-width:0.00694488}
    .str1 {stroke:#E6E7E8;stroke-width:0.00694488}
    .fil1 {fill:none}
    .fil0 {fill:#373435}
   ]]>
  </style>
 </defs>
 <g id="Layer_x0020_1">
  <metadata id="CorelCorpID_0Corel-Layer"/>
  <path class="fil0 str0" d="M7.46017 3.00071l-0.197657 0.204913 -0.592236 0.224697 -0.225035 0.0685669c-0.109921,0.0417047 -0.167386,0.100886 -0.109453,0.198535l0.0348465 0.0188386 -0.0577126 0.146161c-0.102386,-0.0180472 -0.211882,-0.0183307 -0.331185,0.00591732l-0.605039 0.145862 0.0885236 0.0950472c0.0957047,0.0620669 0.0078622,0.151232 -0.0511339,0.118031 -0.11239,-0.106307 -0.258866,-0.161476 -0.455157,-0.141925l-0.825705 -0.00755512c-0.16465,-0.0433543 -0.301319,-0.00276772 -0.410004,0.121744l-0.123091 0.274323 -0.287657 0.732425c-0.232803,0.191472 -0.670142,0.461705 -1.29651,0.554858 -0.545681,0.0811535 -0.877638,0.506992 -0.799913,0.619039l0.078126 0.132571c0.106567,0.0921457 -0.0249685,0.254559 -0.127882,0.229839l-0.352402 -0.329909c-0.272783,-0.078185 -0.521717,0.623728 -0.83587,0.640453l0 -0.974764 0.400323 -0.308819 0.702134 -0.185c0.44439,-0.0902362 0.689307,-0.355665 1.16232,-0.448469 0.227476,-0.0463543 0.388992,-0.148528 0.505378,-0.288894 0.15385,-0.162445 0.20515,-0.316339 0.153898,-0.461693l-0.256496 -0.820787 0.0431575 -0.182091c0.0913937,-0.100846 0.114425,-0.210232 0.0690906,-0.328173l-0.394394 -0.182276 -0.367114 0.00628346 -0.0639252 0.0338583 -0.480591 0.0544331 -0.0173701 -0.00943701 0.453587 -0.0797362 0.0825197 -0.065 0.301016 -0.0279646 -0.318516 -0.194583 -0.396909 -0.677083 0.0312165 0.00190551 0.42987 0.606327 0.303693 0.158 0.206882 0.10763 0.166461 0.059874 0.00266535 -0.110252c0.0078189,-0.0486142 0.0423228,-0.135772 0.0485748,-0.211469 0.00818898,-0.0991654 0.244913,-0.0619291 0.211768,0.0383189l-0.0648622 0.150114c-0.0502244,0.168323 0.0277402,0.259732 0.233898,0.120402l0.183894 -0.18115 0.354917 -0.131736 0.296201 -0.348744 -0.243563 0.354201 -0.280004 0.123146 -0.103843 0.133067 -0.272071 0.348634 -0.0315039 0.305252c-0.042689,0.205165 0.0513583,0.341965 0.282146,0.410394l0.298213 -0.292902 0.668283 -0.0871772 0.31698 -0.0845827 0.306909 -0.0616142 0.0498543 -0.387098 -0.103067 -0.513756 0.147091 0.432469 0.0384567 -0.136413 0.234823 -0.0894724 0.209606 -0.269913 -0.157787 0.289154 -0.225843 0.120256 -0.0506654 0.319831 0.0299606 0.272717 -0.76248 0.385906 0.461693 0.128248c0,0 0.566091,-0.0126339 0.940787,-0.134988 0.256366,-0.0837126 0.367343,-0.274602 0.367343,-0.326705 0,-0.0500984 1.05012,-0.133933 0.834634,-0.449055l-0.198898 -0.290862 -0.240213 -0.0651496 -0.157437 0.0525157 -0.13187 -0.0719213 0.0412756 -0.0195866 0.0800079 0.0497205 0.154827 -0.0574685 0.17678 -0.000181102 0.0112874 -0.288165c-0.0197992,-0.0782008 0.115114,-0.0842953 0.12022,-0.0248465 0.00125591,0.0146063 -0.0177126,0.0206693 -0.0474488,0.151831 -0.0260118,0.114748 0.150717,0.360012 0.23963,0.425646l0.18435 0.136094c0.0773701,0.0571102 0.204417,-0.0303661 0.22365,-0.0401299l0.00116535 -0.000551181c0,0 0,0 0,0l0.0855787 0.082z"/>
  <path class="fil0 str0" d="M7.60375 2.99163c0.172618,-0.0736969 0.334087,-0.302169 0.46302,-0.488815 0.0328622,-0.0475709 0.0820315,0.00532677 0.11813,-0.0264488l0.150917 -0.13285 0.0557205 -0.292059 -0.202378 -0.288622 -0.155614 -0.0469449 0.0579331 -0.0467874 0.138937 0.0581339 0.111106 0.143898c0.0541457,0.0568937 0.110374,0.0515118 0.168028,0.00351181l-0.0181181 -0.514276 -0.208327 -0.225717 -0.0568661 -0.295665 0.027937 -0.00523622 0.0479094 0.278996 0.230563 0.242276 0.00327559 0.28278 0.0425945 0.158386 0.0535709 0.030437 0.0413898 -0.0187795 0.425031 0.0486181 -0.424917 0.00316929 -0.1725 0.105862 -0.0636732 0.192157 -0.0314488 0.210614 -0.123 0.116898 0.240795 0.108236c0.115209,0.0175394 0.196764,-0.00819685 0.263024,-0.0536063l0.0900354 -0.155917 0.0818898 -0.0744882 0.0293228 -0.275185 -0.00185827 0.291016 -0.070063 0.0722362 -0.00897244 0.0727756 0.137591 0.10535 0.0603268 0.0508307 0.0242756 -0.0224134 0.0843268 -0.0153346 0.062185 -0.0113071 0.119185 -0.150752 -0.0922126 0.16115 -0.0456457 0.0126535 0.0908858 0.0802047 -0.135992 -0.0677008 -0.0723701 0.020063 -0.0135472 0.0773661 -0.0319961 0.0276378 -0.0195315 0.118744 0.104705 0.124213 -0.115248 -0.122319 0.0132756 -0.122075 0.0297323 -0.0466693 -0.0464764 -0.0767008 -0.161378 -0.0892992 -0.0687205 0.0644724 -0.182583 0.0969921 -0.11576 -0.00788976 -0.130827 -0.0396181 -0.182449 -0.0415 -0.172799 0.107437 -0.356768 0.369862 -0.0855787 -0.082z"/>
  <path class="fil0 str0" d="M7.37342 2.91926c0.000444882,-0.000224409 0.000834646,-0.000409449 0.00116535,-0.000551181l-0.00116535 0.000551181z"/>
  <path class="fil0 str0" d="M9.87205 4.23472l0.231969 0.125374 0.278091 -0.0181772c0.0587283,0.0689055 0.178087,0.314811 0.241248,0.290752l0.266768 -0.18437 0.234787 0.102346 0.245488 -0.165894 -0.228539 0.215854 -0.252685 -0.100295 -0.289799 0.241787 0.0117008 0.190008 -0.111114 0.0594843 -0.0689449 0.0418937 0.0199331 0.105697 0.163717 0.146197 0.0534921 -0.00611024 0.121547 0.0244567 0.539433 -0.0419646 -0.507972 0.0838228 -0.148681 -0.00980315 0.0345748 0.0814803c0.00891339,0.0298425 -0.0422717,0.053563 -0.0604606,0.0252638l-0.032563 -0.0821654 -0.198138 -0.174614 -0.145291 0.207417 -0.0611614 0.298134 -0.324606 0.106311c-0.0381024,0.0183701 -0.0388465,0.0616496 -0.0140157,0.121965l0.0734094 0.096626 0.269874 0.0681811 -0.0286811 0.0339567 -0.192217 -0.0542992 -0.0818425 -0.023122 -0.0871535 0.034622 0.042748 0.110142 -0.0591417 -0.108169 -0.0311181 0.0784764 -0.0762953 0.0497244 0.0672283 -0.0552874 0.0190394 -0.0791063 0.123291 -0.0571811 -0.0446181 -0.0700276 -0.0394803 -0.102925 -0.160898 0.141571 -0.219433 0.0613819 -0.0389291 -0.00985827 0.231008 -0.0605472 0.137492 -0.122409 0.0901102 -0.107831 0.288976 -0.0790551 0.0686339 -0.296165 0.149835 -0.231984 -0.0203898 -0.129673 0.198335 -0.127461 -0.0742165 -0.146717 -0.0216417 -0.166807 -0.114354 -0.123669 -0.242941 0.0368504c-0.0892402,-0.0454724 -0.182768,-0.0802362 -0.283118,-0.0979252l0.0577126 -0.146161z"/>
  <path class="fil1 str1" d="M1.22949 6.63896c-0.00335827,-0.0038937 -0.00113386,-0.0115079 0.00497244,-0.0170079 0.00611024,-0.0055 0.0137874,-0.00680709 0.0171457,-0.00291339 0.00672441,0.0077874 0.00226772,0.0230197 -0.00994488,0.0340197 -0.0122165,0.011 -0.0275669,0.0136102 -0.0342913,0.00582283 -0.0100827,-0.0116811 -0.00340157,-0.0345236 0.0149213,-0.0510236 0.0183268,-0.0165079 0.0413543,-0.0204173 0.051437,-0.00874016 0.0134409,0.0155748 0.00453543,0.0460354 -0.0198976,0.0680354 -0.0244331,0.0220039 -0.0551339,0.0272205 -0.0685787,0.0116457 -0.0168031,-0.0194606 -0.00566929,-0.0575394 0.0248701,-0.0850394 0.0305394,-0.0275079 0.0689213,-0.0340236 0.0857244,-0.0145591 0.0201654,0.0233583 0.00680315,0.0690472 -0.0298465,0.102055 -0.0366457,0.0330039 -0.0827008,0.0408228 -0.102866,0.0174646 -0.0235276,-0.027248 -0.00793701,-0.0805551 0.0348189,-0.119059 0.0427559,-0.0385039 0.0964882,-0.0476299 0.120012,-0.0203819 0.0268858,0.0311457 0.00907087,0.092063 -0.0397953,0.136071 -0.0488622,0.0440079 -0.110268,0.0544331 -0.137157,0.0232913"/>
  <path class="fil1 str1" d="M2.86701 2.52807c-0.00144094,0.00305906 0.00244094,0.00751181 0.00866929,0.00994094 0.00623228,0.00243307 0.0124528,0.00192126 0.0138937,-0.0011378 0.00288583,-0.00611811 -0.00487795,-0.0150197 -0.0173386,-0.0198819 -0.0124606,-0.0048622 -0.0249016,-0.00384252 -0.0277874,0.00227165 -0.00432677,0.00917717 0.0073189,0.0225276 0.0260118,0.0298228 0.018689,0.00729528 0.0373465,0.00576772 0.0416772,-0.00340945 0.00576772,-0.0122323 -0.00975591,-0.0300354 -0.0346772,-0.0397598 -0.0249213,-0.00972441 -0.0498031,-0.00768898 -0.0555709,0.00454331 -0.0072126,0.0152953 0.0121929,0.0375472 0.0433465,0.0497047 0.0311496,0.0121535 0.062248,0.00961024 0.0694606,-0.00568504 0.00865354,-0.0183504 -0.0146299,-0.0450512 -0.0520118,-0.0596378 -0.0373819,-0.0145866 -0.0747008,-0.0115354 -0.0833583,0.00681496 -0.0100945,0.0214134 0.0170709,0.0525669 0.060685,0.0695827 0.0436102,0.0170197 0.0871496,0.0134567 0.097248,-0.00795276 0.0115433,-0.0244724 -0.0195079,-0.0600748 -0.0693504,-0.0795236 -0.0498425,-0.0194488 -0.0996024,-0.015378 -0.111146,0.00909055"/>
  <path class="fil1 str1" d="M5.44953 4.17877c0,-0.00337795 -0.00304724,-0.00611811 -0.00680315,-0.00611811 -0.00375591,0 -0.00679921,0.00274016 -0.00679921,0.00611811 0,0.00675591 0.00608661,0.0122362 0.0136024,0.0122362 0.00751181,0 0.0135984,-0.00548031 0.0135984,-0.0122362 0,-0.0101378 -0.00913386,-0.0183543 -0.0204016,-0.0183543 -0.0112677,0 -0.0204016,0.00821654 -0.0204016,0.0183543 0,0.0135157 0.0121772,0.0244724 0.0272047,0.0244724 0.0150236,0 0.0272008,-0.0109567 0.0272008,-0.0244724 0,-0.0168937 -0.0152244,-0.0305906 -0.0340039,-0.0305906 -0.0187795,0 -0.0340039,0.0136969 -0.0340039,0.0305906 0,0.0202756 0.0182677,0.0367087 0.0408071,0.0367087 0.0225354,0 0.0408031,-0.0164331 0.0408031,-0.0367087 0,-0.0236535 -0.021315,-0.0428268 -0.0476063,-0.0428268 -0.0262913,0 -0.0476063,0.0191732 -0.0476063,0.0428268 0,0.0270315 0.0243583,0.0489449 0.0544094,0.0489449 0.0300472,0 0.0544055,-0.0219134 0.0544055,-0.0489449"/>
  <path class="fil1 str2" d="M7.17435 4.9158c-0.000389764,-0.00126378 -0.00225984,-0.00181102 -0.0041811,-0.00121654 -0.00191732,0.000590551 -0.00315748,0.00209843 -0.00276378,0.0033622 0.000779528,0.00252756 0.00452362,0.00361811 0.0083622,0.00242913 0.00383465,-0.00118504 0.00631102,-0.00419685 0.0055315,-0.00672441 -0.00117717,-0.00379528 -0.00679134,-0.0054252 -0.0125433,-0.00364567 -0.00575591,0.00177953 -0.0094685,0.00629528 -0.00829528,0.0100906 0.00156299,0.00505512 0.00905118,0.00723228 0.0167244,0.00485827 0.00766929,-0.00237402 0.0126181,-0.00839764 0.0110551,-0.0134528 -0.00195669,-0.00632283 -0.011315,-0.00904331 -0.0209016,-0.00607874 -0.00959055,0.0029685 -0.0157795,0.0105 -0.0138228,0.0168228 0.00234646,0.00758661 0.0135748,0.0108504 0.0250866,0.0072874 0.0115079,-0.00355906 0.0189331,-0.0125945 0.0165866,-0.0201811 -0.00274016,-0.00885039 -0.0158425,-0.0126575 -0.0292677,-0.00850394 -0.0134252,0.00415354 -0.0220906,0.0146969 -0.0193543,0.0235472 0.00312992,0.0101142 0.0181024,0.0144646 0.0334488,0.00971654 0.0153465,-0.00474803 0.025248,-0.0167953 0.0221181,-0.0269094"/>
 </g>
</svg>
