<?xml version="1.0" encoding="UTF-8" standalone="no"?>
<!-- Created with Inkscape (http://www.inkscape.org/) -->

<svg
   xmlns:dc="http://purl.org/dc/elements/1.1/"
   xmlns:cc="http://creativecommons.org/ns#"
   xmlns:rdf="http://www.w3.org/1999/02/22-rdf-syntax-ns#"
   xmlns:svg="http://www.w3.org/2000/svg"
   xmlns="http://www.w3.org/2000/svg"
   xmlns:xlink="http://www.w3.org/1999/xlink"
   xmlns:sodipodi="http://sodipodi.sourceforge.net/DTD/sodipodi-0.dtd"
   xmlns:inkscape="http://www.inkscape.org/namespaces/inkscape"
   width="1440"
   height="1024"
   id="svg3640"
   version="1.1"
   inkscape:version="0.47 r22583"
   sodipodi:docname="vector.svg">
  <defs
     id="defs3642">
    <linearGradient
       id="linearGradient3718">
      <stop
         id="stop3720"
         offset="0"
         style="stop-color:#b0b0b0;stop-opacity:1;" />
      <stop
         id="stop3722"
         offset="1"
         style="stop-color:#ffffff;stop-opacity:1;" />
    </linearGradient>
    <inkscape:perspective
       sodipodi:type="inkscape:persp3d"
       inkscape:vp_x="0 : 526.18109 : 1"
       inkscape:vp_y="0 : 1000 : 0"
       inkscape:vp_z="744.09448 : 526.18109 : 1"
       inkscape:persp3d-origin="372.04724 : 350.78739 : 1"
       id="perspective3648" />
    <inkscape:perspective
       id="perspective3635"
       inkscape:persp3d-origin="0.5 : 0.33333333 : 1"
       inkscape:vp_z="1 : 0.5 : 1"
       inkscape:vp_y="0 : 1000 : 0"
       inkscape:vp_x="0 : 0.5 : 1"
       sodipodi:type="inkscape:persp3d" />
    <inkscape:perspective
       id="perspective2900"
       inkscape:persp3d-origin="0.5 : 0.33333333 : 1"
       inkscape:vp_z="1 : 0.5 : 1"
       inkscape:vp_y="0 : 1000 : 0"
       inkscape:vp_x="0 : 0.5 : 1"
       sodipodi:type="inkscape:persp3d" />
    <inkscape:perspective
       id="perspective2913"
       inkscape:persp3d-origin="0.5 : 0.33333333 : 1"
       inkscape:vp_z="1 : 0.5 : 1"
       inkscape:vp_y="0 : 1000 : 0"
       inkscape:vp_x="0 : 0.5 : 1"
       sodipodi:type="inkscape:persp3d" />
    <inkscape:perspective
       id="perspective3731"
       inkscape:persp3d-origin="0.5 : 0.33333333 : 1"
       inkscape:vp_z="1 : 0.5 : 1"
       inkscape:vp_y="0 : 1000 : 0"
       inkscape:vp_x="0 : 0.5 : 1"
       sodipodi:type="inkscape:persp3d" />
    <inkscape:perspective
       id="perspective4257"
       inkscape:persp3d-origin="0.5 : 0.33333333 : 1"
       inkscape:vp_z="1 : 0.5 : 1"
       inkscape:vp_y="0 : 1000 : 0"
       inkscape:vp_x="0 : 0.5 : 1"
       sodipodi:type="inkscape:persp3d" />
    <inkscape:perspective
       id="perspective4273"
       inkscape:persp3d-origin="0.5 : 0.33333333 : 1"
       inkscape:vp_z="1 : 0.5 : 1"
       inkscape:vp_y="0 : 1000 : 0"
       inkscape:vp_x="0 : 0.5 : 1"
       sodipodi:type="inkscape:persp3d" />
    <inkscape:perspective
       id="perspective4289"
       inkscape:persp3d-origin="0.5 : 0.33333333 : 1"
       inkscape:vp_z="1 : 0.5 : 1"
       inkscape:vp_y="0 : 1000 : 0"
       inkscape:vp_x="0 : 0.5 : 1"
       sodipodi:type="inkscape:persp3d" />
    <style
       id="style4299"
       type="text/css">
   
    .str2 {stroke:#DEDEDD;stroke-width:0.003}
    .str0 {stroke:#1F1A17;stroke-width:0.00694488}
    .str1 {stroke:#DEDEDD;stroke-width:0.00694488}
    .fil1 {fill:none}
    .fil0 {fill:#1F1A17}
   
  </style>
    <inkscape:perspective
       id="perspective4317"
       inkscape:persp3d-origin="495 : 255 : 1"
       inkscape:vp_z="990 : 382.5 : 1"
       inkscape:vp_y="0 : 1000 : 0"
       inkscape:vp_x="0 : 382.5 : 1"
       sodipodi:type="inkscape:persp3d" />
    <inkscape:perspective
       id="perspective4341"
       inkscape:persp3d-origin="0.5 : 0.33333333 : 1"
       inkscape:vp_z="1 : 0.5 : 1"
       inkscape:vp_y="0 : 1000 : 0"
       inkscape:vp_x="0 : 0.5 : 1"
       sodipodi:type="inkscape:persp3d" />
    <style
       id="style4360"
       type="text/css">
   
    .str2 {stroke:#E6E7E8;stroke-width:0.003}
    .str0 {stroke:#373435;stroke-width:0.00694488}
    .str1 {stroke:#E6E7E8;stroke-width:0.00694488}
    .fil1 {fill:none}
    .fil0 {fill:#373435}
   
  </style>
    <inkscape:perspective
       id="perspective4384"
       inkscape:persp3d-origin="495 : 255 : 1"
       inkscape:vp_z="990 : 382.5 : 1"
       inkscape:vp_y="0 : 1000 : 0"
       inkscape:vp_x="0 : 382.5 : 1"
       sodipodi:type="inkscape:persp3d" />
    <inkscape:perspective
       id="perspective4414"
       inkscape:persp3d-origin="0.5 : 0.33333333 : 1"
       inkscape:vp_z="1 : 0.5 : 1"
       inkscape:vp_y="0 : 1000 : 0"
       inkscape:vp_x="0 : 0.5 : 1"
       sodipodi:type="inkscape:persp3d" />
    <inkscape:perspective
       id="perspective4436"
       inkscape:persp3d-origin="0.5 : 0.33333333 : 1"
       inkscape:vp_z="1 : 0.5 : 1"
       inkscape:vp_y="0 : 1000 : 0"
       inkscape:vp_x="0 : 0.5 : 1"
       sodipodi:type="inkscape:persp3d" />
    <inkscape:perspective
       id="perspective3682"
       inkscape:persp3d-origin="0.5 : 0.33333333 : 1"
       inkscape:vp_z="1 : 0.5 : 1"
       inkscape:vp_y="0 : 1000 : 0"
       inkscape:vp_x="0 : 0.5 : 1"
       sodipodi:type="inkscape:persp3d" />
    <inkscape:perspective
       id="perspective4316"
       inkscape:persp3d-origin="0.5 : 0.33333333 : 1"
       inkscape:vp_z="1 : 0.5 : 1"
       inkscape:vp_y="0 : 1000 : 0"
       inkscape:vp_x="0 : 0.5 : 1"
       sodipodi:type="inkscape:persp3d" />
    <inkscape:perspective
       id="perspective4333"
       inkscape:persp3d-origin="0.5 : 0.33333333 : 1"
       inkscape:vp_z="1 : 0.5 : 1"
       inkscape:vp_y="0 : 1000 : 0"
       inkscape:vp_x="0 : 0.5 : 1"
       sodipodi:type="inkscape:persp3d" />
    <inkscape:perspective
       id="perspective4347"
       inkscape:persp3d-origin="0.5 : 0.33333333 : 1"
       inkscape:vp_z="1 : 0.5 : 1"
       inkscape:vp_y="0 : 1000 : 0"
       inkscape:vp_x="0 : 0.5 : 1"
       sodipodi:type="inkscape:persp3d" />
    <inkscape:perspective
       id="perspective4361"
       inkscape:persp3d-origin="0.5 : 0.33333333 : 1"
       inkscape:vp_z="1 : 0.5 : 1"
       inkscape:vp_y="0 : 1000 : 0"
       inkscape:vp_x="0 : 0.5 : 1"
       sodipodi:type="inkscape:persp3d" />
    <inkscape:perspective
       id="perspective4375"
       inkscape:persp3d-origin="0.5 : 0.33333333 : 1"
       inkscape:vp_z="1 : 0.5 : 1"
       inkscape:vp_y="0 : 1000 : 0"
       inkscape:vp_x="0 : 0.5 : 1"
       sodipodi:type="inkscape:persp3d" />
    <inkscape:perspective
       id="perspective4389"
       inkscape:persp3d-origin="0.5 : 0.33333333 : 1"
       inkscape:vp_z="1 : 0.5 : 1"
       inkscape:vp_y="0 : 1000 : 0"
       inkscape:vp_x="0 : 0.5 : 1"
       sodipodi:type="inkscape:persp3d" />
  </defs>
  <sodipodi:namedview
     id="base"
     pagecolor="#ffffff"
     bordercolor="#666666"
     borderopacity="1.0"
     inkscape:pageopacity="0.0"
     inkscape:pageshadow="2"
     inkscape:zoom="4.6354778"
     inkscape:cx="1124.7294"
     inkscape:cy="729.3952"
     inkscape:document-units="px"
     inkscape:current-layer="layer1"
     showgrid="false"
     inkscape:window-width="1280"
     inkscape:window-height="738"
     inkscape:window-x="-8"
     inkscape:window-y="-8"
     inkscape:window-maximized="1"
     showguides="true"
     inkscape:guide-bbox="true"
     inkscape:snap-page="false">
    <sodipodi:guide
       orientation="0,1"
       position="-96.974644,250.51783"
       id="guide4263" />
    <sodipodi:guide
       orientation="1,0"
       position="1275.3809,1066.5567"
       id="guide3697" />
  </sodipodi:namedview>
  <metadata
     id="metadata3645">
    <rdf:RDF>
      <cc:Work
         rdf:about="">
        <dc:format>image/svg+xml</dc:format>
        <dc:type
           rdf:resource="http://purl.org/dc/dcmitype/StillImage" />
        <dc:title />
      </cc:Work>
    </rdf:RDF>
  </metadata>
  <g
     inkscape:label="Layer 1"
     inkscape:groupmode="layer"
     id="layer1"
     transform="translate(0,-28.362183)">
    <rect
       style="fill:#353535;fill-opacity:1"
       id="rect3737"
       width="1440"
       height="1024"
       x="0"
       y="28.362183" />
    <path
       style="fill:#000000"
       d="m -1034.7159,766.23455 c -0.1749,-0.2987 -0.4027,-4.4122 -0.5063,-9.1412 l -10.8559,9.9459 -2.8722,-2.374 -2.8722,-2.3739 -5.5318,2.2346 c -3.9961,1.6141 -5.9577,2.0536 -7.0657,1.5829 -0.8436,-0.3583 -3.3541,-1.4123 -5.5789,-2.3422 -2.7295,-1.1409 -4.6392,-2.5893 -5.872,-4.4532 -1.0955,-1.6567 -2.4588,-2.7648 -3.4055,-2.7682 -0.8683,0 -15.7175,-0.1201 -15.7191,-1.7733 l -0.2372,-244.12838 c -8e-4,-0.81347 6.3538,-1.18643 7.4286,-0.95356 1.0748,0.23285 2.2064,0.0711 2.5147,-0.3594 0.3082,-0.43053 0.9379,-0.78278 1.3993,-0.78278 0.4613,0 0.63,0.29171 0.3747,0.64822 -0.7496,1.04702 2.1443,1.62868 3.4498,0.6934 0.9643,-0.69077 1.2912,-0.53644 1.6963,0.80085 l 0.5018,1.65652 1.0728,-1.71846 c 0.928,-1.48658 1.1471,-1.55306 1.6242,-0.49265 0.4311,0.95828 0.9871,1.08286 2.5475,0.57075 1.2368,-0.40592 2.1864,-0.38923 2.4965,0.0439 0.2752,0.38442 1.7041,0.51296 3.1754,0.28565 1.4712,-0.22731 3.8074,-0.54558 5.1915,-0.70726 6.8632,-0.80171 18.5199,-3.73593 23.2861,-5.86161 1.2733,-0.56783 3.5599,-0.96006 5.0815,-0.8716 1.5224,0.0885 3.6775,-0.38997 4.7922,-1.06394 2.6661,-1.61199 5.9772,-1.5521 8.4892,0.15353 2.8143,1.91092 15.1092,1.61727 25.45893,-0.60806 6.24082,-1.34186 8.85847,-1.54472 15.0993,-1.17009 4.15229,0.24927 10.5695,0.54572 14.26043,0.65878 3.69094,0.11306 7.49828,0.43192 8.46076,0.70856 0.96247,0.27664 5.81308,0.19843 10.77914,-0.17379 7.48726,-0.56119 9.83855,-0.47782 13.76875,0.48825 2.60676,0.64076 6.06077,1.13728 7.67556,1.10338 1.61478,-0.0339 9.73065,-0.24197 18.03527,-0.46236 8.95432,-0.23766 16.38982,-0.10738 18.27022,0.32013 2.6841,0.61019 3.5366,0.4961 5.5527,-0.74308 3.3783,-2.07653 6.6752,-3.03814 10.5604,-3.08017 1.8507,-0.02 5.2157,-0.8439 7.4778,-1.83083 4.7249,-2.06146 7.1994,-1.89851 12.0153,0.79122 3.6522,2.03978 57.0896,3.68566 68.0146,3.43139 5.7592,-0.13404 6.6463,0.0341 8.929,1.69208 1.3939,1.01249 3.1406,1.8409 3.8814,1.8409 0.7407,0 1.3496,0.40731 1.3529,0.90513 0,0.57795 2.7972,0.62367 4.1537,1.07746 1.8793,0.62867 3.9655,1.0096 5.4943,2.27035 2.1503,1.77318 4.6064,5.34135 4.6064,6.97785 0,0.67757 0.9437,2.20006 2.0972,3.38331 1.1534,1.18325 2.0971,3.05997 2.0971,4.17047 0,2.33522 -42.6297,25.5385 -45.1031,26.21613 -0.9371,0.25674 -2.0464,1.24444 -2.465,2.19488 -0.4599,1.04428 -1.6857,1.89922 -3.0976,2.16057 -1.2851,0.23787 -3.9617,0.9325 -5.9481,1.54363 -1.9863,0.61112 -6.5161,1.37155 -10.0662,1.68982 -5.9589,0.53425 -8.7374,1.15184 -18.3598,4.08104 -4.9253,1.49934 -8.1221,3.76586 -6.9828,4.95081 0.6647,0.69143 0.4322,1.02663 -0.9248,1.33294 -1.5429,0.34828 -1.7431,0.78048 -1.3443,2.90164 0.4021,2.13928 0.2556,2.44434 -1.0339,2.15324 -0.9909,-0.22367 -2.23178,1.20561 -3.3172,1.86077 -13.57526,8.19409 -25.72266,32.92439 -39.9221,25.86702 -5.97899,-2.97166 -1.122,-0.0733 -1.468,0.0236 -0.346,0.0969 -1.101,0.21699 -1.6777,0.26677 -0.5767,0.0498 -1.1668,1.14951 -1.3114,2.44384 -0.2816,2.52078 -2.6731,3.4099 -2.6731,0.99379 0,-2.10934 -2.06043,-3.24674 -4.14065,-2.28574 -1.83153,0.84613 -2.51677,-0.19484 -0.74906,-1.13789 0.647,-0.34517 0.33936,-0.72933 -0.90132,-1.12551 -2.02226,-0.64575 -5.05091,0.3461 -6.20428,2.03183 -0.69936,1.02214 -3.26023,1.32834 -4.2152,0.504 -0.30356,-0.26206 -0.13152,-0.91375 0.38234,-1.44821 0.73721,-0.76677 0.5145,-0.96942 -1.05585,-0.96067 -2.34907,0.0131 -3.65607,0.66777 -4.31467,2.16123 -0.36918,0.83717 -0.49415,0.78185 -0.54519,-0.24137 -0.0364,-0.73014 -0.53793,-1.1918 -1.11445,-1.02592 -2.1134,0.6081 -7.3006,15.22044 -7.3259,20.63703 -0.008,1.69259 -0.22435,3.07743 -0.48099,3.07743 -0.25663,0 -2.33279,-1.58569 -4.61367,-3.52376 -2.8203,-2.3964 -4.14706,-4.11492 -4.14706,-5.37155 0,-2.92792 -0.86838,-4.13854 -2.9686,-4.13854 -3.62786,0 -5.42109,3.39663 -5.41101,10.24922 0.007,4.99605 1.99065,19.06349 3.7615,26.68003 0.74899,3.22154 -0.49813,3.92145 -5.23818,2.93986 -6.01883,-1.2464 -9.38993,-4.33514 -13.16946,-12.06652 -5.58936,-11.43358 -6.33963,-12.57005 -8.62529,-13.06525 -5.5564,-1.20381 -9.75882,2.81971 -10.67724,10.22271 -0.78881,6.35828 -0.0471,12.79613 2.92221,25.3651 0.94085,3.98257 1.94673,8.70734 2.23528,10.49948 0.50359,3.12769 0.46047,3.21488 -1.07496,2.17232 -0.87979,-0.59739 -1.78835,-1.2648 -2.01903,-1.48311 -1.47593,-1.3968 -5.98,-3.58561 -7.37835,-3.58561 -3.71844,0 -5.15783,7.70329 -3.5855,19.18871 l 0.69392,5.06872 -3.04382,2.57983 c -2.51469,2.1314 -4.0573,2.73704 -8.87396,3.48417 -6.71762,1.04198 -9.49802,2.22922 -14.51472,6.1981 -3.3185,2.62538 -9.4343,-8.39264 -9.4343,-6.1443 0,0.51795 -0.427,1.85906 -0.9489,2.98019 -0.5219,1.12113 -1.0422,2.69011 -1.1561,3.48663 -2.0266,14.1659 -2.2188,18.03963 -1.7025,34.32081 l 0.5601,17.6666 -3.0921,3.8755 c -2.968,3.72 -4.0972,4.5065 -4.7845,3.3325 l 10e-5,0 z"
       id="path3306"
       sodipodi:nodetypes="ccccccssssssssssscccssssssssssssssssssssssssssaasssssssssssssaasssssssssssssssssssssssssssssscccsssssccccc"
       inkscape:export-filename="E:\www\meongx\img\text3457.png"
       inkscape:export-xdpi="90"
       inkscape:export-ydpi="90"
       inkscape:connector-curvature="0" />
    <g
       id="g4480"
       transform="translate(-1159.322,105.2411)"
       inkscape:export-xdpi="90"
       inkscape:export-ydpi="90">
      <path
         id="path2162"
         d="m 430.86161,613.322 c -0.18676,2.76526 -0.3323,3.60563 0.9375,7.59375 -2.84291,3.41381 -4.57105,8.85461 -5.1875,16.0625 -14.38432,21.2602 -12.71481,40.39203 -9.53125,51 2.1549,7.18032 4.67664,8.39235 9.03125,8.625 -0.23537,6.15486 4.16663,23.00657 -4.8125,28.6875 -9.6423,6.1005 4.97696,20.06598 7.65625,23.96875 2.67927,3.90278 4.8589,1.68787 3.28125,-2 -1.57764,-3.68784 -16.94895,-13.88335 -6.84375,-20.4375 9.99188,-6.48068 6.70716,-23.29704 6.78125,-28.6875 0.007,-0.49265 -0.0272,-0.97281 -0.0937,-1.40625 0.51349,0.02 0.98121,0.0252 1.53125,0.0625 9.24354,0.62614 17.69177,-2.66324 18.96875,-8.34375 1.27698,-5.6805 4.96494,-5.97139 0.9375,-18.125 3.41916,-10.90711 2.24955,-29.48448 -1.34375,-30.09375 6.52242,-6.93357 3.52825,-13.56036 2.21875,-16.96875 2.33252,-2.8747 2.14708,-5.89596 2.8125,-9.4375 -5.70598,1.23415 -6.20544,2.16881 -10.1875,5.25 -4.27386,-1.20372 -6.724,-0.76491 -9.03125,-0.3125 -2.0271,-3.00473 -3.26977,-3.55703 -7.125,-5.4375 z"
         style="fill:#000000;fill-rule:evenodd;stroke:#666666;stroke-width:0.40937519px;stroke-linecap:butt;stroke-linejoin:miter;stroke-opacity:1" />
      <g
         inkscape:export-ydpi="90"
         inkscape:export-xdpi="90"
         style="stroke:#000000"
         id="g4164"
         transform="matrix(-0.44614882,0,0,0.44614882,554.8891,519.06829)">
        <path
           style="fill:none;stroke:#000000;stroke-width:0.25;stroke-linecap:butt;stroke-linejoin:miter;stroke-miterlimit:4;stroke-opacity:1;stroke-dasharray:none"
           d="m 226.26359,253.6428 -27.22674,-1.40828"
           id="path2164" />
        <path
           style="fill:none;stroke:#000000;stroke-width:0.25;stroke-linecap:butt;stroke-linejoin:miter;stroke-miterlimit:4;stroke-opacity:1;stroke-dasharray:none"
           d="m 225.79416,255.74535 -18.54234,3.99012"
           id="path2166" />
        <path
           style="fill:none;stroke:#000000;stroke-width:0.25;stroke-linecap:butt;stroke-linejoin:miter;stroke-miterlimit:4;stroke-opacity:1;stroke-dasharray:none"
           d="m 203.73112,268.17528 23.0019,-9.15382"
           id="path2170" />
      </g>
      <path
         inkscape:export-ydpi="90"
         inkscape:export-xdpi="90"
         inkscape:export-filename="E:\www\meongx\img\g4164.png"
         sodipodi:nodetypes="cc"
         id="path2172"
         d="m 452.75094,640.54815 c -1.10924,-0.6021 -2.57786,-1.78012 -4.5996,-1.65174"
         style="fill:none;stroke:#666666;stroke-width:0.44614884px;stroke-linecap:butt;stroke-linejoin:miter;stroke-opacity:1" />
      <path
         inkscape:export-ydpi="90"
         inkscape:export-xdpi="90"
         inkscape:export-filename="E:\www\meongx\img\g4164.png"
         sodipodi:nodetypes="cc"
         id="path2178"
         d="m 453.85947,671.23724 c -0.91383,-3.08438 -1.12041,-6.86678 -4.2019,-8.52386"
         style="fill:none;stroke:#666666;stroke-width:0.44614884px;stroke-linecap:butt;stroke-linejoin:miter;stroke-opacity:1" />
    </g>
    <path
       style="fill:#000000;stroke:#000000;stroke-width:1.13111222px;stroke-linecap:butt;stroke-linejoin:miter;stroke-opacity:1"
       d="m -856.47461,1020.5446 -3.375,2.1562 21.375,13.0625 3.75,10.25 c 0.52648,5.8467 -0.70373,9.5617 -4.46875,10.125 l -30.71875,0.4688 -13.21875,24 -18.03125,13.9688 -12.375,-20.3126 -0.59375,-7.9062 c -0.80918,-2.9176 -5.8445,-2.24 -5.875,0.5625 l 0.8125,7.9062 -12.53125,-4.8125 -45.90625,-6.3125 47.5,10.75 9.78125,5.3438 4.78125,0.9062 10.15625,16.9376 -1.09375,9.625 -7.03125,1.75 -11.15625,2.1562 -4.0625,16.6563 -31.34375,13.0312 -19.0625,-15.3437 -25.40629,12.4687 25.53129,-7.7187 17.46875,15.0625 27.84375,-8.75 c 6.07078,-0.3843 9.75728,23.9485 12.96875,31.4375 l 24.40625,5.8437 12.5625,12.8438 -14.75,15.0937 -22.9375,26.0625 -10.34375,30.9375 -5.84375,-5.5625 -6.84375,-8.625 -10.09375,-12.625 -6.9375,-34.375 -1.3125,-0.6562 4.1875,36.7812 10,14.5 -13.53125,-4.5625 -4.78125,1.2188 -21.09375,-5.25 0.5625,0.75 21.78125,6.8437 3.40625,-0.2187 15.9375,6.75 13.53125,15.4062 c -0.30184,5.9544 -3.37822,10.2433 -9.25,12.8438 l -5.375,7 -4.625,40.3125 c -0.57122,7.2499 -5.72439,12.9068 -15.46875,16.9687 -7.70601,3.8267 -16.64559,5.1666 -27.34375,2.8125 -22.17719,-5.0497 -37.82529,1.7064 -58.71879,-2.9062 l -33.8125,-5.4688 -23.1875,5.6563 -18.6562,32.0312 c 13.8695,5.2908 38.0436,-20.2175 48.3125,-11.625 l 8.9062,21 c 3.9656,3.0357 12.7391,-1.455 9.9063,-7.4687 l -0.8438,-7.2188 c -1.2079,-6.3201 21.2554,-18.3491 46.3438,-11.4062 28.79802,7.9694 50.26362,-1.0096 63.96874,-4.8125 l 25,-20.375 10.5625,-9.4688 c 7.07049,-3.2903 13.72832,-2.4271 20,2.5938 l 39.46875,26.125 c 8.84021,2.9133 14.12457,8.0766 16.9375,14.8125 1.90903,2.5609 7.40871,0.4147 4.46875,-4.0938 l -2,-5.8125 28.875,5.3125 c 11.10771,2.4502 18.70088,8.3062 24.71875,15.7188 l 11.1875,3.0625 2.5625,7.5 -2.25,7.625 0.40625,7.75 -11,1.6875 -1.59375,6 -10.90625,7.125 -8.625,11.4687 -14,-2.125 -5.9375,2.9375 -8.28125,2.625 -11.125,-1.8125 1.5,1.1875 10.65625,1.5625 9.625,-3.0312 -0.25,5.1875 0.5625,3.875 -6.40625,0.094 -2.3125,3.0625 -3.96875,1.0937 4.25,-0.6875 2.84375,-2.7812 0.46875,5.7812 0.25,-5.5625 4.4375,0.1875 3.09375,2.5625 7.25,6 1.875,-0.9062 -10.34375,-8.0938 -1.3125,-5.5937 c 0.0833,-3.0766 0.9426,-4.9057 2.9375,-4.9688 l 16.03125,1.625 8.34375,-11.6875 10.25,-6.1875 5.21875,11.3438 -0.1875,4.1562 c 0.24292,1.5686 2.90694,1.5201 3.09375,0.062 l 0.0625,-4.1562 6.21875,3.25 23.53125,6.125 -24.0625,-8.5313 -4.78125,-3.375 -2.4375,-0.75 -4.25,-9.4375 1.15625,-4.9375 3.78125,-0.5 5.9375,-0.4375 3.125,-8.4062 17.125,-4.9063 8.96875,9.1563 14,-4.9375 -13.75,2.4687 -8.1875,-8.9062 -15.03125,2.8437 c -3.18457,-0.1711 -3.6295,-13.0604 -4.84375,-17.1562 l -12.34375,-4.5313 -8.75,-11.3437 c -0.62989,-5.3204 2.99222,-6.7424 8.53125,-6.4375 l 11.03125,1.3437 39.46875,2 30.78125,-12.7187 74.50001,-1.8438 9.5,-1.3125 7.0625,5.2813 4.90625,4.2187 4.84375,2.5625 9.71875,-0.6875 4.1875,-1.4687 5.25,6.9375 0.5625,4.1875 -2.1875,1.4375 -2.90625,5.0312 2.625,7.4688 -2.125,-7.375 3.09375,-4.7188 1.90625,-0.5937 2.0625,-3.0625 3.53125,0.5 4.5625,5.5312 -2.40625,-5.1875 2.21875,0.3125 7.0625,-5.1875 -8.03125,4.2188 -2.875,-0.6875 -3.9375,-0.9688 -1.46875,0.5 -1.65625,-3.3437 -3.90625,-7.1875 1.78125,-2.9375 4.40625,-1.7813 5.65625,-12.5312 -6.53125,11.3125 -4.96875,1.6562 -6.875,5 c -3.72676,0.6903 -7.71043,0.2425 -12.34375,-2.7187 l -10.28125,-9.3706 c 4.45036,-6.3998 10.18879,-9.6117 15.54018,-15.3036 l 6.86607,-22.2946 13.5625,-6.75 14.9375,2.3125 14.5625,-2.7187 6.03125,20.3437 11.71875,1.5 16.25,18.7813 23.875,13.375 -0.4375,26.9687 7.0625,10.5 7.125,14.9688 -0.59375,21.4687 1.84375,-3.0937 0.1875,-20.5313 -8.15625,-17.4687 9.875,-0.8125 7.15625,-2.0938 1.84375,12.0938 6.375,3.625 3.09375,7.2187 -2.40625,-7.8437 -5.96875,-4.6563 10.8125,-2.4062 -10.59375,0.9375 -0.78125,-8.4063 4.0625,-6.5 9.5,-15.25 -2.1875,-3.3125 -12.6875,21.5938 -10.21875,3.9062 c -5.83666,0.6283 -9.52746,-0.5266 -10.15625,-4.2812 l -1.03125,-30.7187 -24.21875,-12.7813 -14.28125,-17.7812 20.09375,-12.7188 7.90625,-0.75 c 2.90301,-0.8599 2.14637,-5.8933 -0.65625,-5.875 l -7.90625,0.9688 4.5625,-12.625 5.5625,-46 -9.96875,47.6875 -5.15625,9.875 -0.8125,4.7812 -16.75,10.4688 -9.65625,-0.9375 -1.875,-7.0313 -2.34375,-11.0937 -16.71875,-3.75 -13.59375,-31.125 15.03125,-19.3125 -12.90625,-25.1875 8.15625,25.375 -14.75,17.7187 9.21875,27.6875 c 0.48995,6.0632 -24.11279,13.4041 -31.54464,16.7455 l -1.50893,18.7858 -19.00893,18.125 c -0.49328,-0.1201 -1.03499,-0.067 -1.65625,0.3125 -5.66304,3.4616 -45.79318,0.2414 -75.40626,2.6875 -18.1448,1.4987 -30.54178,9.5788 -33.90625,9.5312 -0.74159,-0.01 -8.17261,1.4732 -10.46875,-2.5625 l -5.34375,-9.375 c -2.57875,-4.5324 -5.5054,-18.5175 -2.1875,-22.9687 3.79263,-5.088 4.71232,-4.971 4.9375,-5.625 0.91749,-2.6618 -5.01361,-4.9705 -5.65625,-1.2188 l -6,12.1875 -7.625,-3.375 -7.78125,-0.4687 -2.5,-3.6875 -2.15625,0.062 4.3125,5.625 7.78125,0.75 9.125,7.4062 3,16.3438 c 3.26326,17.7151 -43.635,1.2455 -44.59375,3.4062 -0.99713,2.2472 -9.4346,8.3582 -22.09375,7.0625 -18.50223,-1.8936 -43.15625,-12.1875 -43.15625,-12.1875 l -17.4375,-14.375 40.25,-2.0312 3.9375,-12.3438 8.3125,-12.8437 12.03125,-0.8438 12.34375,-9.4687 -14.21875,7.625 -11.84375,-0.625 -4.25,5.1562 1.9375,-21.4687 -5.40625,24.125 -9.5625,15.75 -14.40625,-3.2188 -15.28125,-2.4062 -30.5,-9.0313 -18.46875,6.9063 c -8.64434,-7.3681 -10.08004,-15.062 -4.3125,-23.0938 l 7.1875,-12.5625 18.40625,-9.8437 7.03125,-3.75 14.4375,0.062 17.28125,-10.625 -19.4375,9.375 -17.84375,-1.0938 -11.375,4.2813 c -1.40757,0.2513 -6.9446,-3.8847 -8.0625,-3.8438 l 9.15625,-29.9375 c 0,0 26.94772,-31.4995 44.28125,-46.0937 17.33353,-14.5943 40.31768,-13.8392 56.21875,-20.75 l 24.28125,-14.9063 13,-2.6562 10.1875,6.6875 7.09375,5.375 6.875,3.0937 13.34375,-1.7812 5.65625,-2.375 7.8125,9.125 1.125,5.7187 -2.875,2.1875 -3.59375,7.1563 4.25,10.0625 -3.5625,-9.9688 3.875,-6.7812 2.59375,-0.9688 2.5625,-4.4062 4.875,0.4062 6.78125,7.2188 -3.71875,-6.9688 3.0625,0.2813 9.28125,-7.75 -10.6875,6.5 -4.0625,-0.7188 -5.5,-0.9687 -1.96875,0.8125 -2.53125,-4.4688 -6.03125,-9.5625 2.21875,-4.2187 5.90625,-2.8438 6.71875,-17.7187 -8.03125,16.125 -6.6875,2.7187 -9.03125,7.4688 c -5.07308,1.2687 -10.64798,0.9948 -17.28125,-2.6875 l -12.21875,-12.0625 10.15625,-4.375 6.6875,-12.125 8.25,-10.2813 12.90625,-2.5625 26,9.4375 -24.8125,-12.5937 -2.96875,0.2187 -2.5625,-3.0937 0.96875,-10.625 6.21875,-17.3126 -8.5625,-20.0312 3.375,-18.0938 -1.8125,-0.3125 -3.21875,19.3125 7.59375,18.5 -10.5625,31.8126 c -4.60674,1.6223 -8.17299,0.6684 -10.1875,-4.0313 l -3.5,-11.3125 -7.15625,-6.6875 -4.59375,1.5313 8.40625,6.4062 5.8125,22.1875 -10,16.5625 -12.25,4.6875 c -2.92351,1.121 -4.69726,-3.2206 -7.78125,-1.0625 l -31.375,15.9688 -55.40625,15.0312 -7.09375,7.25 c -6.51882,-3.8437 -12.36533,-8.539 -17.75,-13.7812 l -21.84375,-3.3125 -6.53125,-13.6875 2.5625,-14.9063 -2.46875,-14.5937 20.46875,-5.6563 1.6875,-11.6875 19.0625,-15.9688 13.8125,-23.625 26.9375,0.9063 10.625,-6.8438 15.09375,-6.875 21.46875,0.9688 -3.09375,-1.9063 -20.5,-0.5625 -17.59375,7.875 -0.65625,-9.9062 -1.96875,-7.1875 12.125,-1.625 3.75,-6.3125 7.25,-2.9375 -7.90625,2.2187 -4.75,5.9375 -2.21875,-10.875 0.75,10.5938 -8.40625,0.6562 -6.4375,-4.1875 -15.0625,-9.7812 z"
       id="path4279"
       sodipodi:nodetypes="ccccccccccccccccccccccccccccccccccccccccccccccccccccccccccccccsccccccccccccccccccccccccccccccccccccccccccccccccccccccccccccccccccccccccccccccccccccccccccccccccccccccccccccccccccccccccccccccccccccccccccccccccccccccccccccccccccccsssccssccccccccccssccccccccccccccccccccccccccccscccccccccccccccccccccccccccccccccccccccccccccccccccccccccccccccccccccccccccccccccccccccccccc"
       inkscape:export-xdpi="90"
       inkscape:export-ydpi="90" />
    <path
       style="fill:#000000;stroke:#000000;stroke-width:1.13111222px;stroke-linecap:butt;stroke-linejoin:miter;stroke-opacity:1"
       d="m -936.4908,273.00725 3.80567,-45.09365 30.78131,-27.50955 30.74945,-31.45058 55.41162,-15.01032 39.8709,-26.11339 41.53361,-41.555141 33.50717,-23.73552 1.03618,5.37898 -37.18897,29.95609 -30.2061,35.336761 c 0,0 -31.42889,24.57908 -47.32999,31.4899 -15.90107,6.91084 -38.86504,6.13578 -56.19857,20.73 -17.33353,14.59422 -44.27479,46.09005 -44.27479,46.09005 l -6.15265,43.02758 -15.34485,-1.54122 10e-6,10e-6 z"
       id="path4279-6"
       sodipodi:nodetypes="cccccccccccsscccc" />
    <path
       style="fill:#373435;stroke:#373435;stroke-width:0.62503922"
       class="fil0 str0"
       d="m -1112.4066,524.41188 -17.7891,18.44217 -53.3013,20.22273 -20.2531,6.17102 c -9.8929,3.75345 -15.0648,9.07974 -9.8508,17.86815 l 3.1361,1.69551 -5.1941,13.15449 c -9.2148,-1.62423 -19.0694,-1.64979 -29.8067,0.5328 l -54.4535,13.12758 7.9672,8.55423 c 8.6134,5.58603 0.7074,13.61088 -4.6021,10.62279 -10.1151,-9.56763 -23.2979,-14.53284 -40.9641,-12.77325 l -74.3135,-0.6804 c -14.8185,-3.90186 -27.1187,-0.2493 -36.9003,10.95696 l -11.0782,24.68907 -25.8891,65.91825 c -20.9523,17.23248 -60.3128,41.55345 -116.6859,49.93722 -49.1113,7.30386 -78.9875,45.62928 -71.9922,55.71351 l 7.0313,11.93139 c 9.5911,8.29314 -2.2471,22.91031 -11.5094,20.68551 l -31.7161,-29.69181 c -24.5505,-7.03665 -46.9546,56.13552 -75.2283,57.64077 l 0,-87.72876 36.029,-27.79371 63.1921,-16.65 c 39.9951,-8.12124 62.0376,-32.00985 104.6088,-40.36221 20.4728,-4.17186 35.0093,-13.36752 45.484,-26.00046 13.8465,-14.62005 18.4635,-28.47051 13.8508,-41.55237 l -23.0846,-73.87083 3.8841,-16.38819 c 8.2255,-9.07614 10.2983,-18.92088 6.2182,-29.53557 l -35.4954,-16.40484 -33.0403,0.5652 -5.7533,3.04722 -43.2531,4.89897 -1.5633,-0.8496 40.8228,-7.17624 7.4268,-5.85 27.0914,-2.51685 -28.6664,-17.51247 -35.7218,-60.93747 2.8095,0.1719 38.6883,54.56943 27.3324,14.22 18.6194,9.6867 14.9814,5.38866 0.2403,-9.92268 c 0.7038,-4.37526 3.8091,-12.21948 4.3718,-19.03221 0.7371,-8.92485 22.0422,-5.57361 19.0591,3.44871 l -5.8376,13.51026 c -4.5201,15.14907 2.4966,23.37588 21.0509,10.83618 l 16.5504,-16.3035 31.9426,-11.85624 26.658,-31.38696 -21.9206,31.87809 -25.2004,11.08314 -9.3459,11.97603 -24.4863,31.37706 -2.8354,27.47268 c -3.842,18.46485 4.6222,30.77685 25.3931,36.93546 l 26.8392,-26.36118 60.1455,-7.84593 28.5282,-7.61247 27.6218,-5.54526 4.4868,-34.83882 -9.276,-46.23804 13.2382,38.92221 3.4611,-12.27717 21.1341,-8.05248 18.8645,-24.29217 -14.2008,26.02386 -20.3259,10.82304 -4.5598,28.78479 2.6964,24.54453 -68.6232,34.73154 41.5524,11.54232 c 0,0 50.9482,-1.13706 84.6708,-12.14892 23.0729,-7.53417 33.0609,-24.71418 33.0609,-29.40345 0,-4.50882 94.5108,-12.05397 75.117,-40.41495 l -17.9008,-26.17758 -21.6192,-5.8635 -14.1693,4.72644 -11.8683,-6.47289 3.7149,-1.76283 7.2007,4.4748 13.9344,-5.17212 15.9102,-0.0163 1.0158,-25.93485 c -1.7819,-7.03809 10.3603,-7.58655 10.8198,-2.23623 0.1134,1.31454 -1.5941,1.86021 -4.2704,13.66479 -2.3411,10.32732 13.5646,32.40108 21.5667,38.30814 l 16.5915,12.24846 c 6.9633,5.1399 18.3976,-2.73294 20.1285,-3.6117 l 0.1053,-0.0496 c 0,0 0,0 0,0 l 7.7021,7.38 z"
       id="path4364" />
    <path
       style="fill:#373435;stroke:#373435;stroke-width:0.62503922"
       class="fil0 str0"
       d="m -1120.2141,517.08138 c 0.04,-0.0202 0.075,-0.0369 0.1053,-0.0496 l -0.1053,0.0496 z"
       id="path4368" />
    <path
       style="fill:none;stroke:#e6e7e8;stroke-width:0.62503922"
       class="fil1 str1"
       d="m -1673.1678,851.85438 c -0.3024,-0.3501 -0.1017,-1.03572 0.4473,-1.53072 0.5499,-0.495 1.2408,-0.6129 1.5431,-0.2619 0.6048,0.7011 0.2043,2.0718 -0.8946,3.0618 -1.0994,0.99 -2.481,1.2249 -3.0862,0.5238 -0.9074,-1.05129 -0.306,-3.10716 1.3429,-4.59216 1.6495,-1.48572 3.7219,-1.83753 4.6294,-0.7866 1.2097,1.40175 0.4086,4.14315 -1.7908,6.12315 -2.199,1.98036 -4.9621,2.44989 -6.1722,1.04814 -1.5122,-1.75149 -0.5103,-5.17851 2.2383,-7.65351 2.7485,-2.47572 6.2029,-3.06216 7.7152,-1.31031 1.8149,2.10222 0.612,6.21423 -2.6861,9.18495 -3.2982,2.97036 -7.4431,3.67407 -9.258,1.57185 -2.1175,-2.45232 -0.7146,-7.24995 3.1337,-10.71531 3.8481,-3.46536 8.684,-4.2867 10.8011,-1.83438 2.4197,2.80314 0.8163,8.28567 -3.5815,12.24639 -4.3976,3.96072 -9.9242,4.89897 -12.3442,2.09619"
       id="path4372" />
    <path
       style="fill:none;stroke:#e6e7e8;stroke-width:0.62503922"
       class="fil1 str1"
       d="m -1525.791,481.87428 c -0.1296,0.2754 0.2196,0.6759 0.7803,0.8946 0.5607,0.2187 1.1208,0.1728 1.2505,-0.1026 0.2601,-0.5508 -0.4392,-1.3518 -1.5606,-1.78938 -1.1214,-0.4374 -2.2411,-0.3456 -2.5008,0.2043 -0.3897,0.8262 0.6588,2.02752 2.3411,2.68407 1.682,0.657 3.3611,0.5193 3.7509,-0.3069 0.5193,-1.10088 -0.8784,-2.70315 -3.1209,-3.5784 -2.2429,-0.8748 -4.4823,-0.6921 -5.0014,0.4086 -0.6489,1.37655 1.0974,3.37923 3.9011,4.47345 2.8035,1.09377 5.6024,0.8649 6.2515,-0.5121 0.7785,-1.6515 -1.3167,-4.05459 -4.681,-5.36742 -3.3644,-1.31283 -6.7231,-1.03815 -7.5023,0.6138 -0.9084,1.92717 1.5364,4.73103 5.4617,6.26247 3.9249,1.5318 7.8435,1.21113 8.7523,-0.7155 1.0389,-2.20248 -1.7557,-5.40675 -6.2415,-7.15716 -4.4859,-1.75041 -8.9642,-1.38402 -10.0031,0.8181"
       id="path4374" />
    <path
       style="fill:none;stroke:#e6e7e8;stroke-width:0.62503922"
       class="fil1 str1"
       d="m -1293.3642,630.43728 c 0,-0.3042 -0.2745,-0.5508 -0.612,-0.5508 -0.3384,0 -0.612,0.2466 -0.612,0.5508 0,0.6084 0.5481,1.10124 1.2242,1.10124 0.6759,0 1.2238,-0.4932 1.2238,-1.10124 0,-0.91242 -0.8217,-1.65186 -1.8362,-1.65186 -1.0141,0 -1.8362,0.7398 -1.8362,1.65186 0,1.21644 1.096,2.20248 2.4485,2.20248 1.3521,0 2.4481,-0.98613 2.4481,-2.20248 0,-1.52046 -1.3702,-2.75319 -3.0604,-2.75319 -1.6901,0 -3.0603,1.23273 -3.0603,2.75319 0,1.82484 1.6441,3.30381 3.6726,3.30381 2.0281,0 3.6723,-1.47897 3.6723,-3.30381 0,-2.12877 -1.9184,-3.85443 -4.2846,-3.85443 -2.3662,0 -4.2845,1.72557 -4.2845,3.85443 0,2.43279 2.1922,4.40505 4.8968,4.40505 2.7042,0 4.8964,-1.97217 4.8964,-4.40505"
       id="path4376" />
    <path
       style="fill:none;stroke:#e6e7e8;stroke-width:0.27000001"
       class="fil1 str2"
       d="m -1138.1304,696.76998 c -0.035,-0.1134 -0.2034,-0.1629 -0.3762,-0.1098 -0.1728,0.0531 -0.2844,0.189 -0.2484,0.3024 0.07,0.2277 0.4068,0.3258 0.7524,0.2187 0.3447,-0.1071 0.5679,-0.378 0.4977,-0.6048 -0.1062,-0.342 -0.6111,-0.4887 -1.1289,-0.3285 -0.5184,0.1602 -0.8523,0.567 -0.747,0.90819 0.1404,0.4554 0.8145,0.6507 1.5052,0.4374 0.6903,-0.2133 1.1356,-0.756 0.9949,-1.21077 -0.1764,-0.5688 -1.0183,-0.8136 -1.8811,-0.5472 -0.8631,0.2673 -1.4202,0.945 -1.2441,1.51407 0.2115,0.6831 1.2217,0.9765 2.2578,0.6561 1.0357,-0.3204 1.704,-1.13346 1.4928,-1.81629 -0.2466,-0.7965 -1.4258,-1.13922 -2.6341,-0.765 -1.2082,0.3735 -1.9882,1.32273 -1.7418,2.11923 0.2817,0.91026 1.6291,1.30185 3.0104,0.8748 1.3811,-0.4275 2.2723,-1.51155 1.9906,-2.42181"
       id="path4378" />
    <path
       style="fill:#000000;stroke:#373435;stroke-width:0.62503922"
       class="fil0 str0"
       d="m -732.80771,138.3748 c 5.42902,15.99607 24.82375,32.05363 40.68834,44.90448 4.04345,3.27538 -1.04115,7.32473 1.56294,10.78224 l 10.8862,14.45455 25.82648,7.00413 27.28898,-16.18064 5.28049,-13.6424 3.80107,5.51983 -6.17014,12.06905 -13.67548,8.98309 c -5.47707,4.46858 -5.3799,9.5513 -1.46789,15.05442 l 46.27445,1.90279 21.68484,-17.14612 26.92259,-3.07435 0.27818,2.54293 -25.36528,2.38495 -23.32339,19.02792 -25.39863,-1.64593 -14.50551,2.73554 -3.09893,4.59852 1.40119,3.84311 -7.2792,37.80787 2.63107,-38.15298 -8.31626,-16.20618 -16.80691,-7.03236 -18.6843,-4.26729 -9.64625,-11.83986 -11.36509,20.86582 c -2.3644,10.21829 -0.61422,17.71348 3.00579,23.97107 l 13.37392,9.14939 6.12253,7.85974 24.49336,4.51955 -26.10245,-2.1637 -6.00157,-6.78295 -6.46924,-1.3043 -10.39798,11.6243 -4.97538,5.06486 1.84472,2.33227 0.79754,7.67256 0.58798,5.65795 12.71042,11.7298 -13.82858,-9.38074 -0.82226,-4.183 -7.82104,7.60562 7.00845,-11.73913 -1.30386,-6.63201 -6.84971,-1.74652 -2.26065,-3.0609 -10.52184,-2.56751 -11.86506,8.54374 11.76744,-9.50285 10.86368,2.02898 3.98398,2.9883 7.2019,-3.64439 9.1208,-13.86904 -5.31407,-6.60916 -7.4511,-17.05015 1.50231,-10.33394 4.4529,-11.46832 4.976,-16.08787 -8.45555,-16.24382 -30.74276,-34.55344 7.94571,-7.11707 z"
       id="path4366-7" />
    <path
       style="fill:#000000;stroke:#373435;stroke-width:0.62503922"
       class="fil0 str0"
       d="m -805.33446,487.09856 -8.41903,-22.18781 -20.00703,-15.12631 c 0.0553,-8.14829 6.39754,-31.91741 0.68067,-33.99572 l -29.0155,-3.14262 -9.96601,-20.78547 -26.47916,-3.14859 28.26484,-1.25094 11.30551,21.699 33.96254,0.58789 10.38418,-13.62763 11.06694,2.48772 7.1599,1.20384 4.8625,-8.37051 -2.5459,-19.58956 -4.00209,-2.73151 -6.83794,-8.81785 -39.20367,-28.88493 39.52436,24.18319 9.54818,9.41641 2.43983,-7.58346 c 1.14996,-2.55589 6.03038,-1.16017 5.60385,1.83732 l -2.61739,7.51198 3.21771,23.55018 22.09937,-5.57508 21.70848,-16.70332 28.36081,11.86173 c 3.67564,0.99114 6.27316,-1.9123 8.13143,-7.48079 l 0.68691,-10.89975 -14.36578,-20.52359 3.95123,-0.62474 9.89432,15.00852 4.21267,6.39051 7.97232,2.77085 3.5702,-10.01593 -2.33771,10.84627 6.73696,-3.51293 8.12151,1.10344 -7.83142,-0.19107 -5.95147,4.26661 -11.76065,-3.36109 -1.08237,7.39428 -3.36806,9.33216 19.28749,-0.17272 18.55493,8.73244 2.07078,2.9622 -19.29403,-9.47043 -16.56602,0.24515 -12.48156,2.04059 -24.33063,-11.62118 -22.10124,16.12971 -23.85443,6.98066 -6.24203,10.0303 -21.00658,-2.9911 -3.57926,14.35856 -8.34203,12.6326 0.51002,15.15071 18.7122,11.78633 c 3.40108,8.34751 7.72443,16.21843 13.51716,23.32805 l -12.5309,6.55716 z"
       id="path4370-3" />
    <image
       y="28.362183"
       x="0"
       id="image3684"
       height="815"
       width="1001"
       xlink:href="file:///E:/www/meongx/img/main.jpg" />
    <g
       id="g4303"
       transform="translate(-193.29183,747.28004)">
      <rect
         style="opacity:0.82743363;fill:#ffffff;fill-opacity:1"
         id="rect4294"
         width="281.97632"
         height="297.97827"
         x="1564.0398"
         y="-90.852707"
         ry="17.051065" />
      <text
         xml:space="preserve"
         style="font-size:40px;font-style:normal;font-weight:normal;fill:#000000;fill-opacity:1;stroke:none;font-family:Bitstream Vera Sans"
         x="1648.158"
         y="186.00056"
         id="text4296"><tspan
           sodipodi:role="line"
           id="tspan4298"
           x="1648.158"
           y="186.00056">About Me</tspan></text>
    </g>
    <image
       y="185.88188"
       x="1051.6665"
       id="image4335"
       height="220"
       width="440"
       xlink:href="file:///C:/Users/meong/Downloads/header-background.png" />
    <image
       y="250.17886"
       x="1199.4448"
       id="image4318"
       height="96"
       width="240"
       xlink:href="file:///C:/Users/meong/Downloads/get-free.png" />
    <rect
       style="fill:#000000;fill-opacity:1"
       id="rect2900"
       width="281.97632"
       height="297.97827"
       x="993.4046"
       y="446.7402"
       ry="17.051065" />
    <text
       xml:space="preserve"
       style="font-size:40px;font-style:normal;font-weight:normal;fill:#ffffff;fill-opacity:1;stroke:none;font-family:Bitstream Vera Sans"
       x="1086.1519"
       y="701.19818"
       id="text3688"><tspan
         sodipodi:role="line"
         id="tspan3690"
         x="1086.1519"
         y="701.19818">About Me</tspan></text>
    <image
       y="667.79071"
       x="1023.492"
       id="image4349"
       height="36.100925"
       width="41.258198"
       xlink:href="file:///E:/Res/icon/glypish/111-user.png" />
    <image
       y="614.32825"
       x="1017.992"
       id="image4363"
       height="36.974262"
       width="46.217831"
       xlink:href="file:///E:/Res/icon/glypish/130-dice.png" />
    <image
       y="560.99548"
       x="1020.0403"
       id="image4377"
       height="28.354919"
       width="37.806561"
       xlink:href="file:///E:/Res/icon/glypish/121-landscape.png" />
    <image
       y="307.75162"
       x="1109.783"
       id="image4391"
       height="24"
       width="24"
       xlink:href="file:///E:/Res/icon/glypish/82-dog-paw.png" />
  </g>
</svg>
